# This file uses centimeters as units for non-parametric coordinates.

mtllib gem_test.mtl
v 0.000000 -0.000000 -3.000000
v -1.828647 -0.000000 -0.890957
v -1.881240 0.000000 0.832374
v -1.257874 -0.000000 1.810324
v 0.000000 -0.000000 2.358284
v 1.257874 -0.000000 1.810324
v 1.881240 0.000000 0.832374
v 1.828647 -0.000000 -0.890957
v -0.000000 0.500000 -1.791873
v -0.961980 0.500000 -0.549496
v -0.940543 0.500000 0.455490
v -0.651498 0.500000 0.950741
v -0.000000 0.500000 1.259547
v 0.651498 0.500000 0.950741
v 0.940543 0.500000 0.455490
v 0.961980 0.500000 -0.549496
v 0.961980 -0.500000 -0.549496
v 0.000000 -0.500000 -1.791873
v 0.940543 -0.500000 0.455490
v 0.651498 -0.500000 0.950741
v 0.000000 -0.500000 1.259547
v -0.651498 -0.500000 0.950741
v -0.940543 -0.500000 0.455490
v -0.961980 -0.500000 -0.549496
vt 0.248810 0.545906
vt 0.122599 0.382906
vt 0.375022 0.382906
vt 0.008892 0.427706
vt 0.125411 0.251052
vt 0.488728 0.427706
vt 0.248810 0.704412
vt 0.372209 0.251052
vt 0.001992 0.201605
vt 0.163334 0.186075
vt 0.495629 0.201605
vt 0.334287 0.186075
vt 0.083777 0.073298
vt 0.248810 0.145560
vt 0.413843 0.073298
vt 0.248810 0.001406
vt 0.751190 0.159912
vt 0.877401 0.322912
vt 0.624978 0.322912
vt 0.991108 0.278112
vt 0.874589 0.454765
vt 0.511272 0.278112
vt 0.751190 0.001406
vt 0.627791 0.454765
vt 0.998008 0.504213
vt 0.836666 0.519742
vt 0.504372 0.504213
vt 0.665713 0.519742
vt 0.916223 0.632519
vt 0.751190 0.560258
vt 0.586157 0.632519
vt 0.751190 0.704412
vn 0.000000 0.956548 -0.291574
vn -0.216843 0.972186 -0.088502
vn 0.217848 0.971924 -0.088912
vn -0.234322 0.971751 0.028178
vn 0.242158 0.969800 0.029120
vn -0.189325 0.962604 0.193779
vn 0.209231 0.954128 0.214153
vn -0.000000 0.937641 0.347605
vn 0.000000 -0.956548 -0.291574
vn 0.216843 -0.972186 -0.088502
vn -0.217848 -0.971924 -0.088912
vn 0.234322 -0.971751 0.028178
vn -0.242158 -0.969800 0.029120
vn 0.189325 -0.962604 0.193778
vn -0.209231 -0.954128 0.214153
vn 0.000000 -0.937641 0.347605
vn 0.000000 0.923994 -0.382407
vn -0.437678 0.878215 -0.192815
vn -0.441705 0.892561 0.090735
vn -0.277761 0.901067 0.333057
vn 0.000000 0.910187 0.414197
vn 0.277761 0.901067 0.333057
vn 0.441705 0.892560 0.090735
vn 0.437678 0.878215 -0.192815
vn 0.000000 -0.923994 -0.382407
vn 0.437678 -0.878215 -0.192815
vn 0.441705 -0.892561 0.090735
vn 0.277761 -0.901067 0.333057
vn 0.000000 -0.910187 0.414197
vn -0.277761 -0.901067 0.333057
vn -0.441705 -0.892561 0.090735
vn -0.437677 -0.878215 -0.192815
usemtl lambert3SG
f 9/1/1 10/2/2 16/3/3
f 10/2/2 11/5/4 16/3/3
f 16/3/3 11/5/4 15/8/5
f 11/5/4 12/10/6 15/8/5
f 15/8/5 12/10/6 14/12/7
f 12/10/6 13/14/8 14/12/7
f 18/17/9 17/18/10 24/19/11
f 17/18/10 19/21/12 24/19/11
f 24/19/11 19/21/12 23/24/13
f 19/21/12 20/26/14 23/24/13
f 23/24/13 20/26/14 22/28/15
f 20/26/14 21/30/16 22/28/15
f 1/7/17 2/4/18 9/1/1
f 9/1/1 2/4/18 10/2/2
f 3/9/19 11/5/4 2/4/18
f 2/4/18 11/5/4 10/2/2
f 4/13/20 12/10/6 3/9/19
f 3/9/19 12/10/6 11/5/4
f 5/16/21 13/14/8 4/13/20
f 4/13/20 13/14/8 12/10/6
f 5/16/21 6/15/22 13/14/8
f 13/14/8 6/15/22 14/12/7
f 6/15/22 7/11/23 14/12/7
f 14/12/7 7/11/23 15/8/5
f 7/11/23 8/6/24 15/8/5
f 15/8/5 8/6/24 16/3/3
f 1/7/17 9/1/1 8/6/24
f 8/6/24 9/1/1 16/3/3
f 1/23/25 8/20/26 18/17/9
f 18/17/9 8/20/26 17/18/10
f 7/25/27 19/21/12 8/20/26
f 8/20/26 19/21/12 17/18/10
f 6/29/28 20/26/14 7/25/27
f 7/25/27 20/26/14 19/21/12
f 5/32/29 21/30/16 6/29/28
f 6/29/28 21/30/16 20/26/14
f 5/32/29 4/31/30 21/30/16
f 21/30/16 4/31/30 22/28/15
f 4/31/30 3/27/31 22/28/15
f 22/28/15 3/27/31 23/24/13
f 3/27/31 2/22/32 23/24/13
f 23/24/13 2/22/32 24/19/11
f 1/23/25 18/17/9 2/22/32
f 2/22/32 18/17/9 24/19/11
